<svg xmlns="http://www.w3.org/2000/svg" width="120" height="299.996"><circle fill="none" stroke="#1D1D1D" stroke-width="2" cx="29.25" cy="80.064" r="9.104"/><path fill="none" stroke="#1D1D1D" stroke-width="2" d="M25.579 77.96l3.671 2.888 5.518-3.886"/><path fill="none" stroke="#1D1D1D" stroke-width="1.87" d="M20.438 28.686h17.564M20.438 34.534h17.583M26.284 28.686v12.011M32.212 28.686v12.011"/><path fill="none" stroke="#1D1D1D" stroke-width="2" d="M26.565 127.688c-6.461 1.021-6.461 5.844-6.461 8.681M38.396 136.368c0-2.845 0-7.683-6.508-8.687"/><circle fill="none" stroke="#1D1D1D" stroke-width="2" cx="29.219" cy="122.906" r="5.469"/><path fill="none" stroke="#1D1D1D" stroke-width="1.87" d="M20.388 22.634h17.664v17.664H20.388z"/><circle fill="none" stroke="#FFF" stroke-width="2" cx="90" cy="79.468" r="9.104"/><path fill="none" stroke="#FFF" stroke-width="2" d="M86.329 77.363L90 80.252l5.518-3.887"/><path fill="none" stroke="#FFF" stroke-width="1.87" d="M81.188 28.09h17.564M81.188 33.938h17.583M87.034 28.09v12.011M92.962 28.09v12.011"/><path fill="none" stroke="#FFF" stroke-width="2" d="M87.314 127.092c-6.461 1.021-6.461 5.844-6.461 8.68M99.146 135.771c0-2.844 0-7.682-6.508-8.686"/><circle fill="none" stroke="#FFF" stroke-width="2" cx="89.969" cy="122.311" r="5.469"/><path fill="none" stroke="#FFF" stroke-width="1.87" d="M81.168 22.634h17.663v17.664H81.168z"/><path opacity=".27" fill="none" stroke="#000" stroke-width="4" d="M40.431 256.621l-11.182 10.25-11.18-10.25"/></svg>